<svg id="Layer_1" data-name="Layer 1" xmlns="http://www.w3.org/2000/svg" xmlns:xlink="http://www.w3.org/1999/xlink" viewBox="0 0 512 512"><defs><linearGradient id="New_Gradient_Swatch_1" x1="256" x2="256" y2="512" gradientUnits="userSpaceOnUse"><stop offset="0" stop-color="#ededee"/><stop offset="0.76" stop-color="#cfd0d2"/><stop offset="1" stop-color="#a6a8ab"/></linearGradient><linearGradient id="New_Gradient_Swatch_2" x1="255.66" y1="416.95" x2="255.66" y2="143.54" gradientUnits="userSpaceOnUse"><stop offset="0" stop-color="#231f20"/><stop offset="1" stop-color="#6d6e70"/></linearGradient></defs><title>favourite</title><path d="M256,512c141,0,256-115,256-256S397,0,256,0,0,115,0,256,115,512,256,512Z" fill-rule="evenodd" fill="url(#New_Gradient_Swatch_1)"/><path d="M243.51,417C318.83,358.71,357,326.19,381.39,283.13c34.29-60.59,13.51-112-29.91-132a81.38,81.38,0,0,0-108,39.51,81.38,81.38,0,0,0-108-39.51c-43.43,20.08-64.2,71.46-29.92,132C130,326.19,168.19,358.71,243.51,417Z" fill="#fff"/><path d="M255.66,417C331,358.71,369.17,326.19,393.54,283.13c34.29-60.59,13.51-112-29.92-132a81.37,81.37,0,0,0-108,39.51,81.38,81.38,0,0,0-108-39.51c-43.43,20.08-64.2,71.46-29.92,132C142.14,326.19,180.33,358.71,255.66,417Z" fill="url(#New_Gradient_Swatch_2)"/></svg>