<svg id="Layer_1" data-name="Layer 1" xmlns="http://www.w3.org/2000/svg" xmlns:xlink="http://www.w3.org/1999/xlink" viewBox="0 0 512 512"><defs><linearGradient id="New_Gradient_Swatch_1" x1="256" x2="256" y2="512" gradientUnits="userSpaceOnUse"><stop offset="0" stop-color="#ededee"/><stop offset="0.76" stop-color="#cfd0d2"/><stop offset="1" stop-color="#a6a8ab"/></linearGradient><linearGradient id="New_Gradient_Swatch_2" x1="256" y1="415.53" x2="256" y2="105.27" gradientUnits="userSpaceOnUse"><stop offset="0" stop-color="#231f20"/><stop offset="1" stop-color="#6d6e70"/></linearGradient></defs><title>home</title><path d="M256,512c141,0,256-115,256-256S397,0,256,0,0,115,0,256,115,512,256,512Z" fill-rule="evenodd" fill="url(#New_Gradient_Swatch_1)"/><path d="M111.23,224.14l38.93-38.92V119.85a5.7,5.7,0,0,1,5.69-5.68h32.86a5.7,5.7,0,0,1,5.68,5.68V141l18.84-18.84c22.45-22.45,38.88-22.53,61.36,0l106.2,106.21c15.2,15.19,12.93,31-9.68,31h-17V387a19.75,19.75,0,0,1-7.46,15.41c23.22,1.39,37.46,3.27,37.46,5.33,0,4.31-62.33,7.81-139.2,7.81s-139.19-3.5-139.19-7.81c0-2,13.85-3.89,36.54-5.28a19.74,19.74,0,0,1-7.5-15.47V259.31H120.36c-27.85,0-24.67-19.62-9.12-35.18ZM286.66,400.26V312.18a10.75,10.75,0,0,0-10.72-10.72H214a10.75,10.75,0,0,0-10.72,10.72v88.08c13.16-.23,27.18-.35,41.7-.35S273.49,400,286.66,400.26Z" fill="#fff" fill-rule="evenodd"/><path d="M122.27,224.14l38.93-38.92V119.85a5.69,5.69,0,0,1,5.68-5.68h32.86a5.7,5.7,0,0,1,5.69,5.68V141l18.84-18.84c22.45-22.45,38.88-22.53,61.35,0L391.84,228.31c15.19,15.19,12.93,31-9.69,31h-17V387a19.75,19.75,0,0,1-7.46,15.41c23.22,1.39,37.46,3.27,37.46,5.33,0,4.31-62.33,7.81-139.2,7.81s-139.2-3.5-139.2-7.81c0-2,13.85-3.89,36.54-5.28A19.74,19.74,0,0,1,145.83,387V259.31H131.39c-27.85,0-24.67-19.62-9.12-35.18ZM297.7,400.26V312.18A10.75,10.75,0,0,0,287,301.46H225a10.76,10.76,0,0,0-10.73,10.72v88.08c13.17-.23,27.18-.35,41.71-.35S284.53,400,297.7,400.26Z" fill-rule="evenodd" fill="url(#New_Gradient_Swatch_2)"/></svg>